<svg width="360" height="96" viewBox="0 0 360 96" fill="none" xmlns="http://www.w3.org/2000/svg">
  <defs>
    <linearGradient id="bg" x1="0" y1="0" x2="360" y2="96" gradientUnits="userSpaceOnUse">
      <stop offset="0" stop-color="#2A0D09"/>
      <stop offset="1" stop-color="#5C1F16"/>
    </linearGradient>
  </defs>

  <rect x="1" y="1" width="358" height="94" rx="12" fill="url(#bg)" stroke="#E2B7AC" stroke-width="1.8"/>

  <polygon points="18,18 92,18 82,78 18,78" fill="#EED6D0"/>
  <polygon points="26,28 80,28 74,68 26,68" fill="#6A2419"/>
  <path d="M40 48H66" stroke="#F8ECE9" stroke-width="3" stroke-linecap="square"/>
  <path d="M53 36V60" stroke="#F8ECE9" stroke-width="3" stroke-linecap="square"/>

  <text x="104" y="28" fill="#E8C9C1" font-size="9.5" font-family="'Arial Black',Arial,sans-serif" letter-spacing="3.6">
    CURATED FINE OBJECTS
  </text>

  <g transform="translate(104 74)">
    <text x="0" y="0" fill="#F8ECE9" font-size="47" font-family="Impact,'Arial Black',sans-serif" font-style="italic" letter-spacing="1.2" transform="skewX(-12)">
      ART
    </text>
    <text x="3" y="2" fill="none" stroke="#2C0E0A" stroke-width="1.8" font-size="47" font-family="Impact,'Arial Black',sans-serif" font-style="italic" letter-spacing="1.2" transform="skewX(-12)">
      ART
    </text>

    <rect x="122" y="-29" width="96" height="18" fill="#E8C9C1"/>
    <text x="128" y="-15" fill="#44150F" font-size="12" font-family="'Arial Black',Arial,sans-serif" letter-spacing="3.2">
      STUDIO
    </text>

    <path d="M0 -9 L214 -9" stroke="#E8C9C1" stroke-width="1.4"/>
    <path d="M8 -5 L188 -5" stroke="#9C5B4D" stroke-width="1.2"/>
    <path d="M16 -1 L220 -1" stroke="#E8C9C1" stroke-width="0.9" opacity="0.75"/>
  </g>
</svg>
